<?xml version="1.0" encoding="UTF-8"?>
<svg version="1.1" xmlns="http://www.w3.org/2000/svg" width="512" height="512">
<path d="M0 0 C1.0214209 -0.00813721 2.0428418 -0.01627441 3.09521484 -0.0246582 C4.7477124 0.00301636 4.7477124 0.00301636 6.43359375 0.03125 C8.15570068 0.04828979 8.15570068 0.04828979 9.91259766 0.06567383 C65.79039058 1.29129702 122.44095893 25.10534408 162.87109375 63.53125 C164.28120822 64.76792793 165.69742975 65.99769473 167.12109375 67.21875 C173.59741624 72.88060597 179.16580471 78.94522168 184.5546875 85.65625 C186.04604753 87.5072466 187.55771121 89.34215849 189.09375 91.15625 C199.28527956 103.23509985 207.53066153 116.56606992 214.87109375 130.53125 C215.26796387 131.28019531 215.66483398 132.02914062 216.07373047 132.80078125 C227.97665208 155.57733573 235.60428862 180.2348403 239.87109375 205.53125 C240.06372803 206.59859375 240.06372803 206.59859375 240.26025391 207.6875 C241.88384586 216.84319617 242.11615939 226.00330314 242.24609375 235.28125 C242.27227783 236.42577637 242.29846191 237.57030273 242.32543945 238.74951172 C242.32761475 239.8273291 242.32979004 240.90514648 242.33203125 242.015625 C242.34024902 242.98209961 242.3484668 243.94857422 242.35693359 244.94433594 C241.6918575 248.4856155 240.79803631 249.40525566 237.87109375 251.53125 C234.64983885 252.13613156 231.46115006 252.07051487 228.19177246 252.03918457 C227.1988738 252.04542453 226.20597514 252.0516645 225.18298864 252.05809355 C221.8463623 252.07408502 218.51046026 252.06139488 215.17382812 252.04882812 C212.78566561 252.05424649 210.39750645 252.06136753 208.00935364 252.07006836 C202.19047311 252.08643981 196.37182388 252.0840085 190.5529362 252.0724178 C185.82431063 252.06338832 181.09574292 252.06215735 176.36711121 252.06651306 C175.35803731 252.06743246 175.35803731 252.06743246 174.32857808 252.06837043 C172.96201613 252.06964932 171.59545419 252.07094617 170.22889227 252.0722608 C157.41125574 252.08367004 144.5937336 252.07054755 131.77611583 252.04905933 C120.77532853 252.03118799 109.77471004 252.03429201 98.77392578 252.05273438 C86.00251373 252.07413507 73.23120197 252.08257137 60.45977449 252.07028532 C59.09820844 252.06901111 57.73664238 252.06775363 56.37507629 252.06651306 C55.3701723 252.06558741 55.3701723 252.06558741 54.34496722 252.06464306 C49.62140774 252.06118774 44.89791182 252.06702239 40.17436218 252.07643127 C33.8180906 252.08796331 27.46213867 252.08001212 21.10590172 252.05685425 C18.7693758 252.05155304 16.43282311 252.05310489 14.09630775 252.06190491 C10.91397702 252.07278788 7.73267942 252.0591838 4.55041504 252.03918457 C3.61929445 252.04810746 2.68817386 252.05703034 1.72883749 252.06622362 C-1.96737053 252.02096916 -4.43813032 251.91426981 -7.70211792 250.10446167 C-9.91976986 246.10492808 -9.67999044 242.35467536 -9.63684082 237.85192871 C-9.64308078 236.85903005 -9.64932075 235.86613139 -9.6557498 234.84314489 C-9.67174127 231.50651855 -9.65905113 228.17061651 -9.64648438 224.83398438 C-9.65190274 222.44582186 -9.65902378 220.0576627 -9.66772461 217.66950989 C-9.68409606 211.85062936 -9.68166475 206.03198013 -9.67007405 200.21309245 C-9.66104457 195.48446688 -9.6598136 190.75589917 -9.66416931 186.02726746 C-9.66478224 185.35455153 -9.66539518 184.6818356 -9.66602668 183.98873433 C-9.66730557 182.62217238 -9.66860242 181.25561044 -9.66991705 179.88904852 C-9.68132629 167.07141199 -9.6682038 154.25388985 -9.64671558 141.43627208 C-9.62884424 130.43548478 -9.63194826 119.43486629 -9.65039062 108.43408203 C-9.67179132 95.66266998 -9.68022762 82.89135822 -9.66794157 70.11993074 C-9.66666736 68.75836469 -9.66540988 67.39679863 -9.66416931 66.03523254 C-9.66355221 65.36529655 -9.66293511 64.69536055 -9.66229931 64.00512347 C-9.65884399 59.28156399 -9.66467864 54.55806807 -9.67408752 49.83451843 C-9.68561956 43.47824685 -9.67766837 37.12229492 -9.6545105 30.76605797 C-9.64920929 28.42953205 -9.65076114 26.09297936 -9.65956116 23.756464 C-9.67044413 20.57413327 -9.65684005 17.39283567 -9.63684082 14.21057129 C-9.64576371 13.2794507 -9.65468659 12.34833011 -9.66387987 11.38899374 C-9.58759819 5.15860322 -9.58759819 5.15860322 -7.24793243 1.95864105 C-4.64349434 0.2042731 -3.12847198 0.01574498 0 0 Z " fill="#1E3040" transform="translate(33.12890625,236.46875)"/>
<path d="M0 0 C4.05274058 2.37270284 7.17094611 5.35978193 10.44541931 8.69586182 C11.07067001 9.32067444 11.69592072 9.94548706 12.34011841 10.5892334 C14.38705736 12.63824778 16.42318812 14.6976514 18.45933533 16.75738525 C19.88356902 18.18721931 21.30847034 19.61638865 22.73400879 21.04492188 C26.47081261 24.79313967 30.19851622 28.550281 33.92436218 32.30938721 C37.73327274 36.14907295 41.55076821 39.98020253 45.36753845 43.81207275 C52.84534055 51.32197817 60.3135516 58.84134394 67.77574158 66.36676025 C68.25495056 65.95466309 68.73415955 65.54256592 69.22789001 65.11798096 C69.85727478 64.57746094 70.48665955 64.03694092 71.13511658 63.4800415 C71.75870056 62.94419434 72.38228455 62.40834717 73.02476501 61.85626221 C77.4584228 58.08468578 80.60743251 56.22886875 86.52574158 56.05426025 C87.7555072 55.99818604 87.7555072 55.99818604 89.01011658 55.940979 C97.3930972 57.23157913 103.07861935 64.23265221 108.76011658 69.95269775 C109.70655909 70.89711535 110.65344621 71.84108757 111.60075378 72.78463745 C113.57561336 74.75509548 115.54499949 76.73082199 117.51060486 78.71051025 C120.02098305 81.23800258 122.54462459 83.75175273 125.07252121 86.26170921 C127.02715219 88.20546361 128.97453754 90.15635138 130.91985321 92.10942459 C132.29565303 93.48817636 133.67745716 94.86092831 135.05937195 96.23355103 C135.89744385 97.08107941 136.73551575 97.92860779 137.59898376 98.80181885 C138.33509888 99.54032074 139.07121399 100.27882263 139.82963562 101.03970337 C144.08752087 106.13107115 145.29474214 110.51330531 145.05308533 116.9800415 C144.24715535 123.91557973 139.60429828 127.83835707 134.77574158 132.36676025 C138.60466124 136.94916942 142.57014962 141.29437398 146.82530212 145.48223877 C147.39682007 146.04908386 147.96833801 146.61592896 148.55717468 147.19995117 C149.78537178 148.41773029 151.01467221 149.6343975 152.24498558 150.85003853 C154.1943326 152.77717564 156.13952759 154.70841461 158.08355713 156.64091492 C163.60666318 162.1305936 169.13397184 167.61598572 174.67149353 173.09112549 C178.06945959 176.45139449 181.46002799 179.81897808 184.84600258 183.19132805 C186.13300309 184.47029463 187.42277114 185.74648273 188.71538353 187.0197773 C190.5220254 188.79986636 192.31910418 190.5891195 194.11436462 192.38067627 C194.6458461 192.89980087 195.17732758 193.41892548 195.72491455 193.95378113 C199.35776777 197.60641894 202.20815646 201.33963965 203.17417908 206.49176025 C203.1664447 207.11051025 203.15871033 207.72926025 203.15074158 208.36676025 C203.15847595 208.98551025 203.16621033 209.60426025 203.17417908 210.24176025 C201.94852463 216.77858399 197.62435836 220.96057625 193.09605408 225.44488525 C192.44627594 226.09753357 191.7964978 226.75018188 191.12702942 227.42260742 C189.75727074 228.79439982 188.38374726 230.16244216 187.00669861 231.5269165 C184.90400697 233.61351984 182.81782761 235.71567449 180.73277283 237.81988525 C179.39649429 239.15418175 178.05928563 240.48754754 176.72105408 241.81988525 C176.10005829 242.44695374 175.4790625 243.07402222 174.83924866 243.72009277 C170.45270364 248.03639742 167.24529764 250.03748611 161.02574158 250.86676025 C149.90379667 250.42268695 140.59190415 237.56344929 133.33433533 230.21832275 C131.95780258 228.83618578 130.58059931 227.45471632 129.20275879 226.07388306 C125.60077477 222.46051541 122.00789681 218.83822659 118.41691589 215.21392822 C114.74190942 211.5080804 111.05825814 207.81084715 107.37535095 204.112854 C100.16705158 196.87250502 92.96835415 189.62269052 85.77574158 182.36676025 C85.29653259 182.77885742 84.81732361 183.19095459 84.32359314 183.61553955 C83.69420837 184.15605957 83.06482361 184.69657959 82.41636658 185.253479 C81.79278259 185.78932617 81.16919861 186.32517334 80.52671814 186.8772583 C76.32466986 190.45181164 73.21782693 192.48994676 67.58824158 192.67926025 C66.51509705 192.73533447 66.51509705 192.73533447 65.42027283 192.7925415 C57.39248697 191.50003241 52.1826496 186.3031506 46.77574158 180.61676025 C46.09640564 179.91937744 45.4170697 179.22199463 44.71714783 178.503479 C43.06041836 176.8000811 41.41384305 175.08804657 39.77574158 173.36676025 C38.6205524 174.27160818 37.47688752 175.19118086 36.33824158 176.11676025 C35.70015564 176.627229 35.0620697 177.13769775 34.40464783 177.66363525 C32.56224715 179.58998225 32.04999314 180.73321213 31.77574158 183.36676025 C32.99083318 185.59548084 32.99083318 185.59548084 34.83824158 187.80426025 C43.38638913 199.42359855 47.95114127 212.99872452 48.77574158 227.36676025 C48.82859314 228.15953369 48.8814447 228.95230713 48.93589783 229.769104 C49.37173615 242.3705163 47.34354488 260.85339773 38.76792908 270.66363525 C36.33796453 272.74101671 34.97143714 273.28881646 31.77574158 273.36676025 C26.73032031 270.97244685 23.15219042 266.99769787 19.28746033 263.0737915 C18.58426163 262.36776291 17.88106293 261.66173431 17.15655518 260.93431091 C14.9206964 258.68729375 12.69190842 256.43340856 10.46324158 254.17926025 C8.94482322 252.65080651 7.42594803 251.12280645 5.90660095 249.59527588 C2.19100549 245.85767764 -1.51881526 242.11442223 -5.22425842 238.36676025 C-13.96748225 242.65135888 -22.53555663 247.12641219 -30.97425842 251.99176025 C-50.66005464 263.31710299 -50.66005464 263.31710299 -56.16175842 263.49176025 C-59.22425842 262.36676025 -59.22425842 262.36676025 -61.22425842 260.17926025 C-62.82226557 255.68486514 -61.70250717 252.42258202 -59.76893616 248.15386963 C-59.15477844 247.01756104 -58.54062073 245.88125244 -57.90785217 244.71051025 C-57.57310379 244.08632202 -57.23835541 243.46213379 -56.89346313 242.81903076 C-55.82420472 240.83051631 -54.74304445 238.84875487 -53.66175842 236.86676025 C-52.96244265 235.56768351 -52.26386897 234.26820699 -51.5660553 232.96832275 C-46.92570634 224.35360272 -42.11619513 215.84074839 -37.22425842 207.36676025 C-41.21215742 202.55931936 -45.40495489 198.10216708 -49.90003967 193.769104 C-51.15257892 192.5437914 -52.40451485 191.31786183 -53.65589905 190.09136963 C-55.60331596 188.18733272 -57.55418395 186.28747112 -59.51551819 184.39776611 C-61.42607846 182.55381734 -63.32030771 180.69433201 -65.21253967 178.831604 C-65.80102188 178.27206528 -66.38950409 177.71252655 -66.99581909 177.1360321 C-70.43273661 173.72201308 -72.07238758 171.42957368 -72.22425842 166.36676025 C-71.40633179 163.68131327 -70.63873559 162.66692898 -68.36878967 161.02301025 C-49.82722407 151.8298722 -28.55526063 149.69320131 -8.60707092 155.4019165 C0.07186121 158.35503236 8.60836491 161.9087243 15.71324158 167.80426025 C17.60330042 169.6014832 17.60330042 169.6014832 19.70152283 169.18707275 C22.26077518 168.17493906 23.31594139 166.94151048 25.02574158 164.80426025 C25.54652283 164.16359619 26.06730408 163.52293213 26.60386658 162.862854 C27.1839447 162.1222876 27.1839447 162.1222876 27.77574158 161.36676025 C27.072276 160.69471558 27.072276 160.69471558 26.354599 160.00909424 C24.21343694 157.95163961 22.08839092 155.87824521 19.96324158 153.80426025 C18.85625916 152.74755127 18.85625916 152.74755127 17.72691345 151.66949463 C12.79144585 146.82335676 9.51892363 142.92057185 8.37730408 135.925354 C8.45647751 128.76015821 10.40250782 124.61396041 15.46324158 119.49176025 C16.56483899 118.44737689 17.66859554 117.40525971 18.77574158 116.36676025 C14.97846129 111.82477971 11.05321216 107.51017466 6.83384705 103.35894775 C6.27368896 102.80346252 5.71353088 102.24797729 5.13639832 101.67565918 C3.93275911 100.48243618 2.7280161 99.29032574 1.52225876 98.09924316 C-0.38956468 96.20964423 -2.2972237 94.31593216 -4.20372009 92.42095947 C-9.62020503 87.03788449 -15.0408693 81.6590744 -20.47181702 76.29058838 C-23.80497588 72.99518014 -27.13069102 69.69241318 -30.45182419 66.3848877 C-31.71287247 65.13186095 -32.97668553 63.88161001 -34.24336624 62.63427734 C-36.01631543 60.88795688 -37.77962541 59.1324035 -39.54115295 57.37457275 C-40.05968842 56.86839417 -40.57822388 56.36221558 -41.11247253 55.84069824 C-44.97127161 51.96057895 -48.50410867 47.59325798 -49.72035217 42.144104 C-49.4487437 33.61559797 -45.29906159 28.98721747 -39.54457092 23.28863525 C-38.89479279 22.63598694 -38.24501465 21.98333862 -37.57554626 21.31091309 C-36.20578758 19.93912069 -34.83226411 18.57107834 -33.45521545 17.206604 C-31.35252382 15.12000066 -29.26634446 13.01784602 -27.18128967 10.91363525 C-25.84501113 9.57933876 -24.50780248 8.24597297 -23.16957092 6.91363525 C-22.23807724 5.97303253 -22.23807724 5.97303253 -21.2877655 5.01342773 C-15.08787971 -1.08718123 -8.30534515 -4.20705105 0 0 Z M-9.85316467 14.89801025 C-10.49125061 15.54769775 -11.12933655 16.19738525 -11.78675842 16.86676025 C-12.42742249 17.51644775 -13.06808655 18.16613525 -13.72816467 18.83551025 C-14.22187561 19.34082275 -14.71558655 19.84613525 -15.22425842 20.36676025 C-13.62052694 24.37193421 -10.80311856 27.04387005 -7.77894592 30.00738525 C-7.24907074 30.53443054 -6.71919556 31.06147583 -6.17326355 31.60449219 C-4.48658017 33.28001701 -2.79306279 34.94843748 -1.09925842 36.61676025 C0.04833546 37.75431876 1.19547619 38.89233462 2.34214783 40.03082275 C5.14812295 42.8147949 7.96024622 45.59241785 10.77574158 48.36676025 C11.95399516 47.46503558 13.11805735 46.54474523 14.27574158 45.61676025 C14.92542908 45.1062915 15.57511658 44.59582275 16.24449158 44.06988525 C18.22146672 42.2527173 18.22146672 42.2527173 17.77574158 38.36676025 C16.02467469 36.2546003 14.30340229 34.40548477 12.34214783 32.50738525 C11.51335365 31.68352325 11.51335365 31.68352325 10.66781616 30.84301758 C9.49966724 29.6852854 8.32676824 28.53232924 7.14952087 27.3838501 C5.33989885 25.6183771 3.54403873 23.83981281 1.75035095 22.0581665 C0.6150551 20.93629113 -0.52098734 19.81517066 -1.65785217 18.69488525 C-2.47037697 17.89344086 -2.47037697 17.89344086 -3.29931641 17.07580566 C-6.35352442 13.26239141 -6.35352442 13.26239141 -9.85316467 14.89801025 Z M-28.95082092 33.89801025 C-29.89054749 34.8725415 -29.89054749 34.8725415 -30.84925842 35.86676025 C-31.48089905 36.51644775 -32.11253967 37.16613525 -32.76332092 37.83551025 C-33.2454303 38.34082275 -33.72753967 38.84613525 -34.22425842 39.36676025 C-29.1197702 45.54810894 -23.541309 51.16498903 -17.84925842 56.80426025 C-16.92242249 57.72658447 -15.99558655 58.64890869 -15.04066467 59.59918213 C-12.77079997 61.8573465 -10.49862305 64.11312967 -8.22425842 66.36676025 C-3.95000263 64.78370255 -1.95894048 61.86107621 0.77574158 58.36676025 C-2.88408047 54.65761446 -6.55033691 50.95499848 -10.22279358 47.25836182 C-11.47199544 45.99908312 -12.71939899 44.7380179 -13.96498108 43.47515869 C-15.75246918 41.66349613 -17.5462607 39.85829186 -19.34144592 38.05426025 C-19.89984161 37.48554199 -20.4582373 36.91682373 -21.03355408 36.33087158 C-22.39301727 34.97101375 -23.8043245 33.66334853 -25.22425842 32.36676025 C-27.35949935 32.14558595 -27.35949935 32.14558595 -28.95082092 33.89801025 Z M28.14683533 52.89801025 C27.50874939 53.54769775 26.87066345 54.19738525 26.21324158 54.86676025 C25.57257751 55.51644775 24.93191345 56.16613525 24.27183533 56.83551025 C23.77812439 57.34082275 23.28441345 57.84613525 22.77574158 58.36676025 C24.37947306 62.37193421 27.19688144 65.04387005 30.22105408 68.00738525 C30.75092926 68.53443054 31.28080444 69.06147583 31.82673645 69.60449219 C33.51341983 71.28001701 35.20693721 72.94843748 36.90074158 74.61676025 C38.04833546 75.75431876 39.19547619 76.89233462 40.34214783 78.03082275 C43.14812295 80.8147949 45.96024622 83.59241785 48.77574158 86.36676025 C49.95399516 85.46503558 51.11805735 84.54474523 52.27574158 83.61676025 C52.92542908 83.1062915 53.57511658 82.59582275 54.24449158 82.06988525 C56.22146672 80.2527173 56.22146672 80.2527173 55.77574158 76.36676025 C54.02467469 74.2546003 52.30340229 72.40548477 50.34214783 70.50738525 C49.51335365 69.68352325 49.51335365 69.68352325 48.66781616 68.84301758 C47.49966724 67.6852854 46.32676824 66.53232924 45.14952087 65.3838501 C43.33989885 63.6183771 41.54403873 61.83981281 39.75035095 60.0581665 C38.6150551 58.93629113 37.47901266 57.81517066 36.34214783 56.69488525 C35.52962303 55.89344086 35.52962303 55.89344086 34.70068359 55.07580566 C31.64647558 51.26239141 31.64647558 51.26239141 28.14683533 52.89801025 Z M9.04917908 71.89801025 C8.10945251 72.8725415 8.10945251 72.8725415 7.15074158 73.86676025 C6.51910095 74.51644775 5.88746033 75.16613525 5.23667908 75.83551025 C4.7545697 76.34082275 4.27246033 76.84613525 3.77574158 77.36676025 C8.8802298 83.54810894 14.458691 89.16498903 20.15074158 94.80426025 C21.07757751 95.72658447 22.00441345 96.64890869 22.95933533 97.59918213 C25.22920003 99.8573465 27.50137695 102.11312967 29.77574158 104.36676025 C34.04999737 102.78370255 36.04105952 99.86107621 38.77574158 96.36676025 C35.11591953 92.65761446 31.44966309 88.95499848 27.77720642 85.25836182 C26.52800456 83.99908312 25.28060101 82.7380179 24.03501892 81.47515869 C22.24753082 79.66349613 20.4537393 77.85829186 18.65855408 76.05426025 C18.10015839 75.48554199 17.5417627 74.91682373 16.96644592 74.33087158 C15.60698273 72.97101375 14.1956755 71.66334853 12.77574158 70.36676025 C10.64050065 70.14558595 10.64050065 70.14558595 9.04917908 71.89801025 Z M120.04917908 145.89801025 C119.10945251 146.8725415 119.10945251 146.8725415 118.15074158 147.86676025 C117.51910095 148.51644775 116.88746033 149.16613525 116.23667908 149.83551025 C115.7545697 150.34082275 115.27246033 150.84613525 114.77574158 151.36676025 C119.8802298 157.54810894 125.458691 163.16498903 131.15074158 168.80426025 C132.07757751 169.72658447 133.00441345 170.64890869 133.95933533 171.59918213 C136.22920003 173.8573465 138.50137695 176.11312967 140.77574158 178.36676025 C145.04999737 176.78370255 147.04105952 173.86107621 149.77574158 170.36676025 C146.11591953 166.65761446 142.44966309 162.95499848 138.77720642 159.25836182 C137.52800456 157.99908312 136.28060101 156.7380179 135.03501892 155.47515869 C133.24753082 153.66349613 131.4537393 151.85829186 129.65855408 150.05426025 C129.10015839 149.48554199 128.5417627 148.91682373 127.96644592 148.33087158 C126.60698273 146.97101375 125.1956755 145.66334853 123.77574158 144.36676025 C121.64050065 144.14558595 121.64050065 144.14558595 120.04917908 145.89801025 Z M102.14683533 163.89801025 C101.50874939 164.54769775 100.87066345 165.19738525 100.21324158 165.86676025 C99.57257751 166.51644775 98.93191345 167.16613525 98.27183533 167.83551025 C97.77812439 168.34082275 97.28441345 168.84613525 96.77574158 169.36676025 C98.37947306 173.37193421 101.19688144 176.04387005 104.22105408 179.00738525 C104.75092926 179.53443054 105.28080444 180.06147583 105.82673645 180.60449219 C107.51341983 182.28001701 109.20693721 183.94843748 110.90074158 185.61676025 C112.04833546 186.75431876 113.19547619 187.89233462 114.34214783 189.03082275 C117.14812295 191.8147949 119.96024622 194.59241785 122.77574158 197.36676025 C123.95399516 196.46503558 125.11805735 195.54474523 126.27574158 194.61676025 C126.92542908 194.1062915 127.57511658 193.59582275 128.24449158 193.06988525 C130.22146672 191.2527173 130.22146672 191.2527173 129.77574158 187.36676025 C128.02467469 185.2546003 126.30340229 183.40548477 124.34214783 181.50738525 C123.51335365 180.68352325 123.51335365 180.68352325 122.66781616 179.84301758 C121.49966724 178.6852854 120.32676824 177.53232924 119.14952087 176.3838501 C117.33989885 174.6183771 115.54403873 172.83981281 113.75035095 171.0581665 C112.6150551 169.93629113 111.47901266 168.81517066 110.34214783 167.69488525 C109.52962303 166.89344086 109.52962303 166.89344086 108.70068359 166.07580566 C105.64647558 162.26239141 105.64647558 162.26239141 102.14683533 163.89801025 Z M158.04917908 183.89801025 C157.10945251 184.8725415 157.10945251 184.8725415 156.15074158 185.86676025 C155.51910095 186.51644775 154.88746033 187.16613525 154.23667908 187.83551025 C153.7545697 188.34082275 153.27246033 188.84613525 152.77574158 189.36676025 C157.8802298 195.54810894 163.458691 201.16498903 169.15074158 206.80426025 C170.07757751 207.72658447 171.00441345 208.64890869 171.95933533 209.59918213 C174.22920003 211.8573465 176.50137695 214.11312967 178.77574158 216.36676025 C183.04999737 214.78370255 185.04105952 211.86107621 187.77574158 208.36676025 C184.11591953 204.65761446 180.44966309 200.95499848 176.77720642 197.25836182 C175.52800456 195.99908312 174.28060101 194.7380179 173.03501892 193.47515869 C171.24753082 191.66349613 169.4537393 189.85829186 167.65855408 188.05426025 C167.10015839 187.48554199 166.5417627 186.91682373 165.96644592 186.33087158 C164.60698273 184.97101375 163.1956755 183.66334853 161.77574158 182.36676025 C159.64050065 182.14558595 159.64050065 182.14558595 158.04917908 183.89801025 Z M140.14683533 201.89801025 C139.50874939 202.54769775 138.87066345 203.19738525 138.21324158 203.86676025 C137.57257751 204.51644775 136.93191345 205.16613525 136.27183533 205.83551025 C135.77812439 206.34082275 135.28441345 206.84613525 134.77574158 207.36676025 C136.37947306 211.37193421 139.19688144 214.04387005 142.22105408 217.00738525 C142.75092926 217.53443054 143.28080444 218.06147583 143.82673645 218.60449219 C145.51341983 220.28001701 147.20693721 221.94843748 148.90074158 223.61676025 C150.04833546 224.75431876 151.19547619 225.89233462 152.34214783 227.03082275 C155.14812295 229.8147949 157.96024622 232.59241785 160.77574158 235.36676025 C161.95399516 234.46503558 163.11805735 233.54474523 164.27574158 232.61676025 C164.92542908 232.1062915 165.57511658 231.59582275 166.24449158 231.06988525 C168.22146672 229.2527173 168.22146672 229.2527173 167.77574158 225.36676025 C166.02467469 223.2546003 164.30340229 221.40548477 162.34214783 219.50738525 C161.51335365 218.68352325 161.51335365 218.68352325 160.66781616 217.84301758 C159.49966724 216.6852854 158.32676824 215.53232924 157.14952087 214.3838501 C155.33989885 212.6183771 153.54403873 210.83981281 151.75035095 209.0581665 C150.6150551 207.93629113 149.47901266 206.81517066 148.34214783 205.69488525 C147.52962303 204.89344086 147.52962303 204.89344086 146.70068359 204.07580566 C143.64647558 200.26239141 143.64647558 200.26239141 140.14683533 201.89801025 Z " fill="#1E2F3F" transform="translate(285.22425842285156,25.63323974609375)"/>
<path d="M0 0 C3.46108537 1.48443842 5.68513626 3.44630233 8.3125 6.125 C9.03050781 6.84945313 9.74851563 7.57390625 10.48828125 8.3203125 C16.28508775 14.5047748 21.65970668 20.95940697 26.8125 27.6875 C27.38419922 28.42033203 27.95589844 29.15316406 28.54492188 29.90820312 C31.27775966 33.46956282 33.65340184 36.65143141 35 41 C34.31035156 41.3403125 33.62070313 41.680625 32.91015625 42.03125 C22.63210964 47.33240984 13.2916841 53.90550305 9.2175293 65.16186523 C6.91409382 72.77969527 5.47424511 80.49896367 4.15820312 88.34179688 C2.62434922 96.42146211 -0.00616373 101.12072269 -6.6875 105.9375 C-16.77996729 109.17470649 -26.20883585 105.8045295 -35.875 102.5625 C-38.43331336 101.72554059 -40.99412014 100.89646569 -43.5546875 100.06640625 C-45.23280518 99.5086853 -45.23280518 99.5086853 -46.94482422 98.93969727 C-57.62298368 95.65535686 -68.21875928 95.66422258 -78.37890625 100.53515625 C-88.763848 106.33896125 -92.59946652 115.23788432 -96.0625 126.375 C-98.08389957 132.71258472 -100.07422183 136.42007979 -106.125 139.6875 C-109.14992294 140.82513406 -112.24427985 141.58357493 -115.375 142.375 C-126.51540002 145.35387913 -133.95854354 151.95854354 -142 160 C-145.125 160.125 -145.125 160.125 -148 160 C-148.16351555 141.96313366 -148.28695757 123.92645964 -148.3626852 105.88901234 C-148.39878146 97.51389097 -148.44799319 89.13923009 -148.52807617 80.7644043 C-148.5978429 73.46494084 -148.64300646 66.16581084 -148.65861946 58.86602324 C-148.66774653 55.00055677 -148.68919596 51.13604426 -148.7401104 47.27088356 C-148.78765526 43.63201378 -148.80227584 39.99448993 -148.79175377 36.35533905 C-148.79459545 34.38445866 -148.83225149 32.41372469 -148.87094116 30.44322205 C-148.80195068 22.00862064 -148.80195068 22.00862064 -146.49366951 19.10547447 C-139.73908452 14.09755581 -132.09704167 14.2857994 -124 15 C-117.93753915 16.57638715 -112.41523891 19.26006778 -106.86328125 22.11328125 C-96.66700385 27.30158642 -88.77459187 30.39532641 -77.28515625 26.85546875 C-75.35481539 26.18768977 -73.4338124 25.49865356 -71.51513672 24.7980957 C-61.48542904 21.23378737 -52.88703718 23.14981791 -42.73828125 25.31640625 C-31.9053629 27.29734743 -22.21125597 26.49451544 -12.75 20.59765625 C-6.06736529 15.42114565 -2.62870809 7.88612428 0 0 Z " fill="#87C7FD" transform="translate(187,313)"/>
<path d="M0 0 C20.20145527 22.37913509 26.04473582 63.79627482 29.484375 92.5390625 C29.63471191 93.79517334 29.63471191 93.79517334 29.78808594 95.07666016 C30.07548651 99.04133121 30 103.02492571 30 107 C-34.68 107 -99.36 107 -166 107 C-166 106.34 -166 105.68 -166 105 C-159.98451946 102.39755806 -154.02814775 99.96035844 -147.75 98.0625 C-140.39720676 95.63079191 -135.08827655 92.60642846 -131.375 85.625 C-129.93820297 82.47362519 -128.73541505 79.27949871 -127.609375 76.0078125 C-122.53351036 61.34608036 -122.53351036 61.34608036 -116 58 C-105.78930294 53.68008971 -95.82693854 56.2111653 -85.875 59.875 C-71.84278415 64.89537558 -59.45913341 68.78763379 -44.8671875 63.38671875 C-37.78734312 59.96254333 -32.56620533 54.9447278 -29.76953125 47.55078125 C-27.77935118 40.95388996 -26.08768566 34.32776479 -25.625 27.4375 C-24.81354478 19.26284002 -21.62899736 12.00271848 -15.5625 6.4375 C-10.81684947 2.65199767 -6.33330697 -0.88939959 0 0 Z " fill="#19CCB8" transform="translate(231,367)"/>
<path d="M0 0 C7.34583934 0 14.06310455 0.1593719 21.25 1.1875 C22.66381958 1.38931885 22.66381958 1.38931885 24.10620117 1.59521484 C59.65223299 6.89199392 93.1644413 19.34478602 122.96533203 39.62890625 C124.91056214 40.93973086 126.88407374 42.19130685 128.87109375 43.4375 C136.55046133 48.42935576 136.55046133 48.42935576 137.640625 52.23828125 C137.48379097 54.76069524 136.92022481 56.6487648 136 59 C135.73832031 59.78890625 135.47664062 60.5778125 135.20703125 61.390625 C132.87217806 67.54892773 129.79645314 70.75843515 124.12109375 74.109375 C118.03058782 76.66671451 110.90790611 75.10211861 104.75 73.5 C93.11475909 70.64607299 83.15545918 71.34503814 71.98535156 75.22070312 C65.39031556 77.46704726 59.98472239 78.12687214 53.5546875 75.171875 C51.98901883 74.37583703 50.42927356 73.56806391 48.875 72.75 C32.28479809 64.52479481 18.07060961 60.97646346 0 67 C0 44.89 0 22.78 0 0 Z " fill="#19CDB8" transform="translate(38,251)"/>
<path d="M0 0 C1.92199114 2.56265486 2.01028636 3.83198949 1.8125 7.0625 C0.9480307 10.18788902 0.51765339 11.07742208 -2 13 C-4.48925781 13.55249023 -4.48925781 13.55249023 -7.453125 13.80859375 C-8.54004639 13.91341064 -9.62696777 14.01822754 -10.74682617 14.1262207 C-11.90287354 14.22894287 -13.0589209 14.33166504 -14.25 14.4375 C-39.54934705 17.04085377 -62.63390284 25.162699 -82 42 C-82.83144531 42.69867188 -83.66289063 43.39734375 -84.51953125 44.1171875 C-105.81159678 62.49835621 -120.92397798 90.92444755 -123.16992188 119.13427734 C-123.3710825 122.60429808 -123.51050422 126.0635512 -123.59375 129.5390625 C-124.05584172 133.47572847 -125.17621554 136.17621554 -128 139 C-135.39672644 139.47720816 -135.39672644 139.47720816 -137.60058594 137.73388672 C-139.30382771 135.62355471 -139.38572091 134.61288743 -139.3984375 131.9296875 C-139.40472168 131.12450684 -139.41100586 130.31932617 -139.41748047 129.48974609 C-139.40346191 128.62687988 -139.38944336 127.76401367 -139.375 126.875 C-139.36484863 125.97990723 -139.35469727 125.08481445 -139.34423828 124.16259766 C-138.66335223 94.36723518 -126.02127528 66.58317432 -107 44 C-106.37351563 43.23816406 -105.74703125 42.47632813 -105.1015625 41.69140625 C-99.9911077 35.67358499 -94.24112512 30.81212268 -88 26 C-87.15824219 25.33097656 -86.31648438 24.66195312 -85.44921875 23.97265625 C-68.03232144 10.62586848 -21.83641511 -13.36826285 0 0 Z " fill="#1D2E3E" transform="translate(203,62)"/>
<path d="M0 0 C3 2 3 2 4 5 C6.12244947 37.37943484 -8.00295588 70.9868059 -29 95 C-29.60714844 95.72832031 -30.21429688 96.45664062 -30.83984375 97.20703125 C-51.26156743 121.42599153 -82.77823163 136.48629616 -114 140 C-117.41783184 140.17896064 -120.82792657 140.22998787 -124.25 140.25 C-125.59578125 140.2809375 -125.59578125 140.2809375 -126.96875 140.3125 C-128.26039063 140.32023437 -128.26039063 140.32023437 -129.578125 140.328125 C-130.35575195 140.3374707 -131.13337891 140.34681641 -131.93457031 140.35644531 C-134.52937474 139.90864218 -135.40027976 139.05079505 -137 137 C-137.72149304 133.49156325 -137.71104274 130.10211625 -135.75 127.0625 C-132.60489687 125.1529731 -129.30087674 124.86969194 -125.68359375 124.640625 C-94.58052177 122.38027084 -65.45608679 111.10031335 -43.6953125 87.97265625 C-24.11983265 65.19473615 -13.85590361 39.61255161 -11.82104492 9.61157227 C-11.7563501 8.79615967 -11.69165527 7.98074707 -11.625 7.140625 C-11.55152344 6.05056152 -11.55152344 6.05056152 -11.4765625 4.93847656 C-10.87221144 2.48020434 -9.96984058 1.55790117 -8 0 C-4.65649854 -1.11450049 -3.33342063 -0.91669067 0 0 Z " fill="#1D2E3E" transform="translate(448,308)"/>
<path d="M0 0 C13.10297113 11.2991855 23.39382607 25.76017003 25.25 43.37207031 C25.88028083 53.24778304 25.1654953 62.56004082 22 72 C16.85750993 67.69682388 12.0478993 63.1865617 7.32055664 58.43408203 C6.58801666 57.70168808 5.85547668 56.96929413 5.10073853 56.21470642 C2.70149725 53.81477343 0.30580871 51.41132745 -2.08984375 49.0078125 C-3.76113873 47.3346507 -5.43265592 45.66171085 -7.10438538 43.98898315 C-11.48774351 39.60182061 -15.86808925 35.21166243 -20.24780273 30.82086182 C-24.72392418 26.3344815 -29.20290426 21.85095708 -33.68164062 17.3671875 C-42.45721843 8.58090901 -51.22961471 -0.2085386 -60 -9 C-59.67 -9.66 -59.34 -10.32 -59 -11 C-39.44191347 -17.40082832 -16.22347282 -12.03199808 0 0 Z " fill="#B2B2B2" transform="translate(294,206)"/>
<path d="M0 0 C1.06637695 -0.0309375 1.06637695 -0.0309375 2.15429688 -0.0625 C7.30160837 -0.101238 7.30160837 -0.101238 9.75 1.58203125 C11.36082962 4.11079687 11.63068155 6.28029871 11.8125 9.25 C11.0493558 11.74756282 10.41601067 12.84058321 8.2578125 14.3046875 C4.72085469 15.67200985 1.12042626 15.81788284 -2.625 16.125 C-23.43908736 18.17256129 -42.81128263 27.49326695 -56.3515625 43.71875 C-67.23435238 58.72310712 -73.10521319 75.07739103 -73.6484375 93.62109375 C-74.33598176 96.97411756 -75.50478586 98.17786776 -78.1875 100.25 C-81.6875 100.75 -81.6875 100.75 -85.1875 100.25 C-88.00491446 98.12687696 -89.05977377 96.92807599 -89.71875 93.4296875 C-89.47708831 67.87396402 -79.93150424 45.48598217 -62.1875 27.25 C-61.31158203 26.29867187 -61.31158203 26.29867187 -60.41796875 25.328125 C-45.1746789 9.19237087 -21.97340981 0.16201592 0 0 Z " fill="#1D2E3E" transform="translate(193.1875,100.75)"/>
<path d="M0 0 C1.65625 1.109375 1.65625 1.109375 3 3 C5.73085693 22.90327258 -1.61126941 44.06274013 -12.859375 60.18359375 C-16.30710302 64.71974686 -20.06893866 68.88174526 -24 73 C-24.53882813 73.61359375 -25.07765625 74.2271875 -25.6328125 74.859375 C-39.77416744 90.35090956 -62.9051324 98.79724692 -83.38671875 100.23828125 C-84.47597656 100.26277344 -85.56523437 100.28726563 -86.6875 100.3125 C-88.33298828 100.36857422 -88.33298828 100.36857422 -90.01171875 100.42578125 C-93 100 -93 100 -95.36328125 98.19921875 C-97.74161662 95.00350798 -97.55428477 92.87999342 -97 89 C-94.63752575 85.62153941 -93.27122378 85.04861037 -89.1640625 84.3125 C-87.65197374 84.19557988 -86.13880265 84.0921101 -84.625 84 C-63.15859324 82.08986277 -44.69441409 73.27711674 -30.40234375 57.05078125 C-19.64815196 43.31629591 -14.09911638 28.36612746 -12.68261719 11.09130859 C-12.08006518 4.06617015 -12.08006518 4.06617015 -10 1 C-6.61147003 -1.54139747 -3.96754849 -1.09740703 0 0 Z " fill="#1D2E3E" transform="translate(408,308)"/>
<path d="M0 0 C1.39412109 -0.03867188 1.39412109 -0.03867188 2.81640625 -0.078125 C5.9050823 0.30853489 7.21707523 1.10022511 9.4375 3.25 C10.63058162 6.90878362 10.76417744 8.54997692 9.125 12.0625 C7.4375 14.25 7.4375 14.25 5.4375 15.25 C3.35511938 15.46764995 1.27156042 15.67407041 -0.8125 15.875 C-10.90679522 17.27554456 -21.23589118 21.35763336 -28.109375 29.203125 C-33.57141618 36.89696796 -36.27309179 44.55115987 -37.45019531 53.81811523 C-37.9063017 57.05800171 -38.4230321 59.06725904 -40.42578125 61.69140625 C-43.55239034 63.97205895 -45.79835881 63.72907252 -49.5625 63.25 C-51.66608381 61.70737187 -52.40304159 60.56891683 -53.5625 58.25 C-54.53800731 43.12963675 -48.6298373 28.70623009 -38.8125 17.3125 C-28.4777058 6.69669932 -14.93411877 0.24924816 0 0 Z " fill="#1D2E3E" transform="translate(194.5625,137.75)"/>
<path d="M0 0 C2.80154481 2.92649634 3.41077217 4.99351702 3.375 9 C2.88583254 24.972381 -4.14057407 38.66678474 -15.5625 49.625 C-25.90087555 58.22364891 -39.63004111 63.37710204 -53.0625 63.30078125 C-55.37548349 62.94170922 -57.00573692 62.21632856 -59 61 C-60.54586876 57.90826248 -60.29359521 55.40570448 -60 52 C-57.73407633 48.87222628 -56.31839794 48.07673103 -52.53125 47.1640625 C-51.18877694 46.97507114 -49.8449045 46.79583193 -48.5 46.625 C-38.7598618 45.07686919 -29.3573588 41.76540626 -22.59375 34.22265625 C-16.40640118 25.59373106 -13.3071638 17.53619351 -12.484375 6.9609375 C-11.9575203 3.74032573 -11.274147 2.30663482 -9 0 C-5.4314543 -1.18951523 -3.60804584 -0.97717908 0 0 Z " fill="#1D2F3E" transform="translate(371,308)"/>
<path d="M0 0 C2.73684083 1.14450572 4.32117099 2.69978911 6.43171692 4.78633118 C7.27551407 5.61421646 8.11931122 6.44210175 8.98867798 7.29507446 C9.88986862 8.19606369 10.79105927 9.09705292 11.71955872 10.02534485 C12.64850449 10.94667709 13.57745026 11.86800934 14.5345459 12.81726074 C16.49735431 14.76663362 18.45413463 16.72183277 20.40730286 18.68086243 C22.91368531 21.193154 25.43787012 23.68668017 27.96729755 26.17574024 C30.37529952 28.55172568 32.76506364 30.9457455 35.15705872 33.33784485 C36.06837051 34.23276138 36.97968231 35.12767792 37.91860962 36.04971313 C38.74664597 36.8870549 39.57468231 37.72439667 40.42781067 38.58711243 C41.16409195 39.32133926 41.90037323 40.0555661 42.65896606 40.81204224 C44.10627747 42.8808136 44.10627747 42.8808136 43.92431641 45.04272461 C42.949282 47.23357387 41.79052612 48.49555954 40.04377747 50.1308136 C39.22200012 50.91198547 39.22200012 50.91198547 38.38362122 51.7089386 C37.96209778 52.09565735 37.54057434 52.4823761 37.10627747 52.8808136 C33.65950746 51.3973836 31.43284446 49.45031172 28.79670715 46.79829407 C27.9561377 45.95757355 27.11556824 45.11685303 26.24952698 44.25065613 C25.35147339 43.34227997 24.4534198 42.43390381 23.52815247 41.4980011 C22.60157837 40.56859711 21.67500427 39.63919312 20.72035217 38.68162537 C18.26311958 36.2167751 15.81195386 33.74597694 13.36201477 31.27388 C10.85853938 28.74990595 8.34935683 26.23161972 5.84065247 23.71284485 C0.92360222 18.77437763 -3.98706042 13.8296016 -8.89372253 8.8808136 C-4.61255867 -0.29030349 -4.61255867 -0.29030349 0 0 Z " fill="#83C2F6" transform="translate(334.8937225341797,133.1191864013672)"/>
<path d="M0 0 C3.44677 1.48343 5.67343301 3.43050188 8.30957031 6.08251953 C9.5704245 7.34360031 9.5704245 7.34360031 10.85675049 8.63015747 C11.75480408 9.53853363 12.65285767 10.44690979 13.578125 11.3828125 C14.5046991 12.31221649 15.43127319 13.24162048 16.38592529 14.19918823 C18.84315789 16.6640385 21.29432361 19.13483666 23.7442627 21.60693359 C26.24773809 24.13090765 28.75692063 26.64919388 31.265625 29.16796875 C36.18267525 34.10643597 41.09333788 39.051212 46 44 C44.23770311 47.77519562 42.23124812 50.30729323 39 53 C35.19888843 52.76076706 33.29628477 50.68638899 30.67456055 48.09448242 C29.8307634 47.26659714 28.98696625 46.43871185 28.11759949 45.58573914 C27.21640884 44.68474991 26.3152182 43.78376068 25.38671875 42.85546875 C24.45777298 41.93413651 23.52882721 41.01280426 22.57173157 40.06355286 C20.60892315 38.11417998 18.65214284 36.15898083 16.69897461 34.19995117 C14.19259215 31.6876596 11.66840734 29.19413343 9.13897991 26.70507336 C6.73097794 24.32908792 4.34121383 21.93506809 1.94921875 19.54296875 C1.03790695 18.64805222 0.12659515 17.75313568 -0.81233215 16.83110046 C-1.6403685 15.9937587 -2.46840485 15.15641693 -3.3215332 14.29370117 C-4.42595512 13.19236092 -4.42595512 13.19236092 -5.5526886 12.06877136 C-7 10 -7 10 -6.81803894 7.83808899 C-5.84300453 5.64723973 -4.68424865 4.38525406 -2.9375 2.75 C-2.38964844 2.22921875 -1.84179688 1.7084375 -1.27734375 1.171875 C-0.64505859 0.59179688 -0.64505859 0.59179688 0 0 Z " fill="#83C1F6" transform="translate(352,114)"/>
<path d="M0 0 C1.42443848 1.45062256 1.42443848 1.45062256 3.08789062 3.46777344 C7.01564962 8.08411942 11.25085739 12.29273063 15.59375 16.515625 C17.21672825 18.11138704 18.83910736 19.70775862 20.4609375 21.3046875 C22.99454711 23.79480167 25.53170768 26.28081924 28.07910156 28.75683594 C30.55367256 31.16516603 33.01232788 33.58880517 35.46875 36.015625 C36.23940796 36.75733948 37.01006592 37.49905396 37.80407715 38.26324463 C38.50230591 38.95786804 39.20053467 39.65249146 39.91992188 40.36816406 C40.54056519 40.97468811 41.1612085 41.58121216 41.80065918 42.20611572 C43 44 43 44 42.80187988 46.08636475 C41.66957096 48.78854784 40.30769016 50.20512988 38 52 C34.84348068 52.45237719 33.47328217 52.33402149 30.84220886 50.47712708 C30.12495132 49.7638475 29.40769379 49.05056793 28.66870117 48.31567383 C27.848228 47.51096146 27.02775482 46.70624908 26.18241882 45.87715149 C25.3114003 44.99601181 24.44038177 44.11487213 23.54296875 43.20703125 C22.64000565 42.30885178 21.73704254 41.4106723 20.80671692 40.48527527 C18.8999246 38.58188726 16.99899833 36.67423458 15.10571289 34.75756836 C12.68017457 32.30354217 10.23287695 29.8726503 7.7781477 27.44786549 C5.43757346 25.12971953 3.11615128 22.79258686 0.79296875 20.45703125 C-0.08817093 19.58601273 -0.96931061 18.7149942 -1.87715149 17.81758118 C-2.68186386 16.997108 -3.48657623 16.17663483 -4.31567383 15.33129883 C-5.0289534 14.61404129 -5.74223297 13.89678375 -6.47712708 13.15779114 C-8.32677724 10.53698235 -8.41333597 9.14370076 -8 6 C-6.7578125 4.19921875 -6.7578125 4.19921875 -5.125 2.6875 C-4.59132813 2.17574219 -4.05765625 1.66398438 -3.5078125 1.13671875 C-2 0 -2 0 0 0 Z " fill="#87C6FC" transform="translate(317,151)"/>
<path d="M0 0 C3.07141457 0.85611487 4.46629674 2.10392635 6.727005 4.35209656 C7.54747818 5.15680893 8.36795135 5.9615213 9.21328735 6.7906189 C10.08430588 7.67175858 10.9553244 8.55289825 11.85273743 9.46073914 C12.75570053 10.35891861 13.65866364 11.25709808 14.58898926 12.18249512 C16.49578158 14.08588313 18.39670785 15.9935358 20.28999329 17.91020203 C22.71553161 20.36422821 25.16282922 22.79512008 27.61755848 25.2199049 C29.95813272 27.53805085 32.27955489 29.87518352 34.60273743 32.21073914 C35.48387711 33.08175766 36.36501678 33.95277618 37.27285767 34.85018921 C38.07757004 35.67066238 38.88228241 36.49113556 39.71138 37.33647156 C40.42465958 38.0537291 41.13793915 38.77098663 41.87283325 39.50997925 C43.39570618 41.66777039 43.39570618 41.66777039 44.06347656 44.06347656 C43.39570618 46.66777039 43.39570618 46.66777039 36.39570618 52.66777039 C21.54570618 37.81777039 6.69570618 22.96777039 -8.60429382 7.66777039 C-2.60429382 0.66777039 -2.60429382 0.66777039 0 0 Z " fill="#86C6FC" transform="translate(371.6042938232422,96.33222961425781)"/>
<path d="M0 0 C2.90782833 1.31484411 5.00641558 2.73375311 7.25 5 C7.77078125 5.515625 8.2915625 6.03125 8.828125 6.5625 C10 8 10 8 10 10 C7.04550087 11.6735337 4.0857982 13.33763985 1.125 15 C0.28324219 15.47695313 -0.55851562 15.95390625 -1.42578125 16.4453125 C-2.63427734 17.12207031 -2.63427734 17.12207031 -3.8671875 17.8125 C-4.61081543 18.23144531 -5.35444336 18.65039062 -6.12060547 19.08203125 C-8 20 -8 20 -10 20 C-8.34229667 15.50675151 -6.15017838 11.38813854 -3.875 7.1875 C-3.50246094 6.49462891 -3.12992188 5.80175781 -2.74609375 5.08789062 C-1.83309623 3.39065164 -0.91687284 1.69514862 0 0 Z " fill="#ED6A80" transform="translate(259,243)"/>
</svg>
